<svg preserveAspectRatio="none" width="100%" height="100%" overflow="visible" style="display: block;" viewBox="0 0 37.5076 37.5021" fill="none" xmlns="http://www.w3.org/2000/svg">
<path id="Vector" d="M35.4976 2.00836C33.1163 -0.372894 29.0851 -0.654144 24.1351 1.25836C22.3726 1.93336 20.5726 2.87086 18.7538 3.99586C16.9351 2.85211 15.1351 1.93336 13.3726 1.25836C8.44132 -0.635394 4.39132 -0.372894 2.01007 2.00836C-1.34618 5.36461 -0.371178 11.8334 3.97882 18.7521C-0.371178 25.6709 -1.34618 32.1396 2.01007 35.4959C3.34132 36.8271 5.19757 37.5021 7.42882 37.5021C9.19132 37.5021 11.1976 37.0896 13.3726 36.2459C15.1351 35.5709 16.9351 34.6334 18.7538 33.5084C20.5726 34.6521 22.3726 35.5709 24.1351 36.2459C26.3101 37.0896 28.3163 37.5021 30.0788 37.5021C32.3101 37.5021 34.1663 36.8271 35.4976 35.4959C38.8538 32.1396 37.8788 25.6709 33.5288 18.7521C37.8788 11.8334 38.8538 5.36461 35.4976 2.00836ZM4.65382 4.65211C5.25382 4.05211 6.21007 3.75211 7.44757 3.75211C8.72257 3.75211 10.2976 4.08961 12.0226 4.74586C13.1101 5.15836 14.2351 5.70211 15.3788 6.33961C13.7476 7.59586 12.1163 9.02086 10.5788 10.5584C9.00382 12.1334 7.61632 13.7271 6.36007 15.3396C3.64132 10.4646 3.00382 6.30211 4.65382 4.65211ZM18.7538 8.51461C20.6288 9.86461 22.5038 11.4396 24.2851 13.2209C26.1038 15.0396 27.6601 16.9146 28.9726 18.7521C27.6601 20.5896 26.1038 22.4459 24.2851 24.2834C22.5038 26.0646 20.6288 27.6396 18.7538 28.9896C16.8788 27.6396 15.0038 26.0646 13.2226 24.2834C11.4038 22.4646 9.84757 20.5896 8.53507 18.7521C9.84757 16.9146 11.4038 15.0584 13.2226 13.2209C15.0038 11.4396 16.8788 9.86461 18.7538 8.51461ZM12.0226 32.7396C8.64757 34.0334 5.89132 34.0709 4.65382 32.8334C3.00382 31.1834 3.64132 27.0209 6.36007 22.1459C7.59757 23.7396 9.00382 25.3521 10.5788 26.9271C12.081 28.4409 13.6847 29.8504 15.3788 31.1459C14.2351 31.7834 13.1288 32.3271 12.0226 32.7396ZM32.8351 32.8334C31.5976 34.0709 28.8413 34.0334 25.4663 32.7396C24.3788 32.3271 23.2538 31.7834 22.1101 31.1459C23.7413 29.8896 25.3726 28.4646 26.9101 26.9271C28.4851 25.3521 29.8726 23.7584 31.1288 22.1459C33.8476 27.0209 34.4851 31.1834 32.8351 32.8334ZM31.1288 15.3396C29.8913 13.7459 28.4851 12.1334 26.9101 10.5584C25.4079 9.04455 23.8042 7.63503 22.1101 6.33961C23.2538 5.70211 24.3601 5.15836 25.4663 4.74586C27.1913 4.08961 28.7663 3.75211 30.0413 3.75211C31.3163 3.75211 32.2163 4.05211 32.8351 4.65211C34.4851 6.30211 33.8476 10.4646 31.1288 15.3396Z" fill="var(--fill-0, black)"/>
</svg>
