<svg preserveAspectRatio="none" width="100%" height="100%" overflow="visible" style="display: block;" viewBox="0 0 70 68.2829" fill="none" xmlns="http://www.w3.org/2000/svg">
<g id="Group 17">
<path id="Vector" d="M49.6029 2.97682C52.1755 0.806961 55.5077 -0.246935 58.8608 0.0489612C61.9897 0.302847 65.0938 1.85687 67.1288 4.25442C69.2285 6.74114 70.2447 9.9647 69.95 13.2054C69.9029 13.7701 69.7951 14.6188 69.6559 15.1638C69.1266 17.7255 67.8255 19.8937 65.944 21.6837C66.0427 25.7415 65.9094 30.0116 65.9545 34.0946C65.997 37.8949 65.9643 41.8018 65.948 45.6055C65.9323 49.3603 64.3992 53.3992 61.6166 56.0119C59.9842 57.5322 57.9845 58.603 55.8136 59.1178C53.6215 59.6477 51.8427 59.5817 49.6203 59.5725L45.067 59.5634C41.4951 59.568 37.4851 59.6536 33.9359 59.5471C30.9936 61.2751 27.5529 63.0516 24.531 64.7051L21.1409 66.5698C19.545 67.4465 18.0412 68.4298 16.1405 68.2645C14.911 68.1528 13.7763 67.557 12.9863 66.6083C11.6238 64.9397 12.0679 62.5276 11.9933 60.514C11.9806 60.1723 11.9982 59.7895 12.0345 59.4484C8.57632 58.784 6.33411 57.7876 3.83717 55.2141C-0.0494227 51.2085 0.0130516 46.8397 0.0139665 41.6574L0.0157315 35.0521L0.0110907 25.2273C0.00893418 19.5114 -0.416621 13.5327 4.22143 9.26714C7.10923 6.61133 9.95487 5.87822 13.8044 6.0034C15.8431 5.94806 18.083 5.9949 20.1335 5.99621L31.7613 5.99771L41.6499 5.99784C43.3231 5.99784 45.3031 5.94767 46.952 6.0149C47.4742 5.05528 48.7425 3.63114 49.6029 2.97682ZM18.3 61.69L27.9754 56.4071C29.2095 55.7368 30.8076 54.8078 32.0449 54.2387C32.6523 53.9597 35.3769 54.0754 36.24 54.076L45.9155 54.0819C50.21 54.0819 55.3385 54.6882 58.3838 51.1105C59.1614 50.207 59.7332 49.1447 60.06 47.998C60.6305 46.0302 60.4756 43.4587 60.4723 41.3811L60.4697 34.9575L60.471 28.2374C60.4717 27.0479 60.5057 25.6401 60.4514 24.4724C58.983 24.733 57.7786 24.8919 56.2717 24.7711C53.0575 24.483 50.0897 22.9284 48.0232 20.4501C45.8793 17.9121 44.9786 14.3918 45.262 11.1176C37.4967 11.2347 29.5954 11.1389 21.8195 11.1547L16.257 11.1501C13.1627 11.1468 10.2182 10.9171 7.88486 13.4012C5.26147 16.1941 5.41249 19.7345 5.41027 23.2829L5.41112 29.07L5.41354 38.722C5.41327 40.6225 5.40726 42.5218 5.43255 44.421C5.45863 46.3863 5.77172 48.1026 6.83476 49.7869C8.24474 52.0206 10.2788 53.3463 12.8843 53.7474C13.2868 52.7282 13.7553 51.5842 14.8372 51.1282C15.5066 50.8466 16.3508 50.8603 17.0169 51.1452C17.5664 51.3804 18.0256 51.8266 18.2362 52.3904C18.6571 53.5174 18.3144 59.9868 18.3 61.69Z" fill="var(--fill-0, black)"/>
<path id="Vector_2" d="M19.0878 37.5823C19.6535 37.3815 25.659 37.5073 26.8686 37.5076L45.328 37.5025C47.8417 37.4584 47.6705 37.9393 47.6749 40.1686C47.6767 41.016 47.7269 41.9672 46.5536 42.1979C45.5847 42.2586 44.4716 42.2266 43.4634 42.2266L37.0685 42.2253L25.6122 42.2246C23.7416 42.2233 21.0144 42.2906 19.1527 42.1378C18.0759 42.0489 18.1598 39.6838 18.2275 39.0109C18.2231 38.3786 18.4642 37.7028 19.0878 37.5823Z" fill="var(--fill-0, black)"/>
<path id="Vector_3" d="M46.372 37.8928C47.5607 37.9561 47.0903 39.7782 47.1654 40.589C47.1993 40.9555 47.064 41.3985 46.7083 41.5736L46.2593 41.505C46.5286 41.4874 46.5894 41.486 46.8524 41.3959L46.9039 41.2776C46.8226 41.0287 46.7417 40.9595 46.4936 40.8824C46.4543 40.2617 46.4872 39.3039 46.4894 38.6584L20.328 38.546C20.7722 38.43 21.4221 38.5441 21.6005 38.4201C21.657 38.2389 21.681 38.1418 21.7137 37.9549C22.9344 37.8308 25.6283 37.9196 26.9442 37.9165L39.9549 37.9061L43.9328 37.9212C44.6532 37.9245 45.6716 37.956 46.372 37.8928Z" fill="var(--fill-0, black)"/>
<path id="Vector_4" d="M45.328 37.5027C47.8417 37.4586 47.6705 37.9395 47.6749 40.1688C47.6767 41.0162 47.7269 41.9674 46.5536 42.1981C45.5847 42.2588 44.4716 42.2268 43.4634 42.2268L37.0685 42.2255L25.6122 42.2249C23.7416 42.2235 21.0144 42.2908 19.1527 42.138C18.0759 42.0491 18.1598 39.684 18.2275 39.0111C18.2231 38.3788 18.4642 37.7031 19.0878 37.5825C19.3838 37.6435 19.5456 37.6041 19.8112 37.6401C19.6963 37.7221 19.5283 37.7633 19.3894 37.8071C19.5489 37.816 19.7393 37.8212 19.8953 37.838C19.2034 37.9198 18.8441 37.959 18.8655 38.7818C18.8833 39.4671 18.7844 40.1708 18.8694 40.8568C18.9775 41.7296 19.5369 41.5663 20.1994 41.6081C26.3059 41.6159 32.4126 41.6133 38.5191 41.6127L43.9678 41.614C44.5456 41.614 46.2158 41.6486 46.7084 41.5741C47.0641 41.399 47.1993 40.9561 47.1654 40.5896C47.0903 39.7788 47.5607 37.9566 46.3721 37.8933C46.088 37.8382 45.5559 37.8489 45.2478 37.8452L45.328 37.5027Z" fill="var(--fill-0, black)"/>
<path id="Vector_5" d="M19.0871 37.5823C19.6528 37.3815 25.6583 37.5073 26.8678 37.5076L45.3272 37.5025L45.2471 37.8449L19.8945 37.8378C19.7386 37.821 19.5482 37.8158 19.3886 37.8069C19.5275 37.7631 19.6955 37.7219 19.8104 37.6399C19.5448 37.6039 19.383 37.6433 19.0871 37.5823Z" fill="var(--fill-0, black)"/>
<path id="Vector_6" d="M19.0126 23.0086C19.5353 22.9522 20.6485 22.9799 21.203 22.98L25.214 22.9826L31.0215 22.9787C32.1247 22.9777 33.4009 22.9482 34.4888 23.003C35.6862 23.7308 35.3297 25.2717 35.2458 26.4913C35.2133 26.9629 34.8235 27.2662 34.4431 27.4912C33.4257 27.541 32.2092 27.5127 31.1709 27.5129L25.526 27.5154C23.4066 27.5175 21.1494 27.6081 19.0683 27.3994C18.012 27.0528 18.2136 25.4773 18.2113 24.7096C18.2085 23.7815 18.2865 23.4661 19.0126 23.0086Z" fill="var(--fill-0, black)"/>
<path id="Vector_7" d="M34.759 26.4842C34.7285 26.8794 34.2056 26.9363 33.9011 26.9312C29.1632 26.8523 24.4192 26.948 19.6811 26.8958C18.7625 26.8857 18.8057 26.4429 18.769 25.7016C18.6263 22.8164 19.1544 23.3006 21.4041 23.2789L27.1674 23.2732L31.4801 23.2713C32.1534 23.2709 33.3875 23.2436 34.0105 23.3227C34.2021 23.3289 34.4616 23.3461 34.5868 23.5188C34.9485 24.0181 34.9117 25.9362 34.759 26.4842Z" fill="var(--fill-0, black)"/>
<path id="Vector_8" d="M23.0911 23.9686L30.4177 23.9776C31.6238 23.9775 32.9869 23.9467 34.1829 23.99C34.1021 24.3915 34.1341 25.7873 34.1367 26.2703L19.454 26.2772C19.4416 25.5019 19.4221 24.7569 19.4701 23.981C20.6639 23.9836 21.9017 24.0009 23.0911 23.9686Z" fill="var(--fill-0, black)"/>
<path id="Vector_9" d="M34.0106 23.3227C34.2023 23.3289 34.4617 23.3461 34.5869 23.5189C34.9487 24.0181 34.9118 25.9362 34.7591 26.4843C34.6872 26.3055 34.7108 25.8756 34.7116 25.6582C34.0956 25.493 34.3642 26.0871 34.2278 26.2761C34.0857 25.6006 34.3132 24.7214 34.1825 23.99C32.9866 23.9467 31.6235 23.9775 30.4174 23.9776L23.0908 23.9685C22.4579 23.8768 21.1095 23.9342 20.2849 23.8645C20.4188 23.8514 20.4381 23.8611 20.5505 23.7843L20.5423 23.5126C20.6443 23.4099 20.6477 23.3865 20.8231 23.3795C21.7929 23.3411 22.8283 23.3489 23.7934 23.3471L30.3236 23.3461C31.2855 23.3502 33.1006 23.4121 34.0106 23.3227Z" fill="var(--fill-0, black)"/>
<path id="Vector_10" d="M49.6027 2.97682C52.1752 0.806961 55.5075 -0.246935 58.8605 0.0489612C61.9895 0.302847 65.0936 1.85687 67.1286 4.25442C69.2282 6.74114 70.2444 9.9647 69.9497 13.2054C69.9027 13.7701 69.7948 14.6188 69.6556 15.1638C69.1263 17.7255 67.8252 19.8937 65.9438 21.6837C64.2944 23.0395 62.5776 24.0444 60.4512 24.4724C58.9827 24.733 57.7784 24.8918 56.2714 24.7711C53.0572 24.483 50.0895 22.9284 48.0229 20.4501C45.879 17.9121 44.9783 14.3918 45.2617 11.1176L45.4011 10.4365L45.5313 9.66881C45.6903 8.56179 46.3081 7.18195 46.8194 6.20109L46.9517 6.0149C47.4739 5.05528 48.7422 3.63113 49.6027 2.97682Z" fill="var(--fill-0, #FA4C47)"/>
<path id="Vector_11" d="M49.6027 2.97654C49.9372 2.98086 50.1297 2.66007 50.4069 2.51196C50.698 2.35646 50.7115 2.13897 50.9071 2.49876C50.6024 2.88619 50.2205 2.90664 50.0891 3.31171C49.7511 3.62021 49.1595 4.13955 48.8938 4.48222C48.2728 5.04572 47.5632 6.14907 47.1806 6.90453C43.4748 14.2208 48.537 23.4993 56.8896 23.8718C60.0179 24.032 63.0789 22.9252 65.3811 20.8016C66.6835 19.6055 67.9853 17.7547 68.5656 16.0733C68.7322 15.5906 68.8557 14.8671 69.0152 14.4661C69.255 13.6864 69.423 14.0288 69.6125 13.5028L69.8876 12.7468C69.8974 13.296 69.4975 14.7572 69.6556 15.1635C69.1263 17.7253 67.8252 19.8934 65.9438 21.6834C64.2944 23.0392 62.5776 24.0441 60.4512 24.4721C58.9827 24.7327 57.7784 24.8916 56.2714 24.7708C53.0572 24.4827 50.0895 22.9281 48.0229 20.4499C45.879 17.9119 44.9783 14.3915 45.2617 11.1173L45.4011 10.4363L45.5313 9.66853C45.6903 8.56152 46.3081 7.18167 46.8194 6.20082L46.9517 6.01462C47.4739 5.055 48.7422 3.63086 49.6027 2.97654Z" fill="var(--fill-0, #FA4C47)"/>
<path id="Vector_12" d="M49.6028 2.97682C52.1753 0.806961 55.5076 -0.246935 58.8607 0.0489612C61.9896 0.302847 65.0937 1.85687 67.1287 4.25442C69.2284 6.74114 70.2446 9.9647 69.9498 13.2054C69.9028 13.7701 69.7949 14.6188 69.6558 15.1638C69.4976 14.7574 69.8976 13.2963 69.8877 12.7471L69.6126 13.503C69.4231 14.029 69.2552 13.6867 69.0153 14.4664C69.0493 14.0529 69.1905 13.4622 69.148 13.0927C69.08 12.8395 69.1428 12.6227 69.0617 12.4029C68.6187 12.4572 68.6494 12.937 68.6206 13.3097C68.6801 13.1701 68.603 11.9094 68.5546 11.6918C68.3128 7.35299 65.5204 3.57051 61.4452 2.06052C57.3694 0.550462 52.786 1.6005 49.7746 4.7341C49.788 4.23645 51.2795 3.517 51.5845 3.14329C51.4579 3.00524 51.4022 2.88496 51.2679 2.74913C50.6639 2.69641 49.4133 4.39462 48.894 4.4825C49.1596 4.13982 49.7512 3.62049 50.0893 3.31198C50.2206 2.90691 50.6025 2.88646 50.9072 2.49904C50.7116 2.13924 50.6981 2.35674 50.407 2.51223C50.1298 2.66034 49.9373 2.98113 49.6028 2.97682Z" fill="var(--fill-0, #FA4C47)"/>
<path id="Vector_13" d="M48.8948 4.48262C49.4142 4.39475 50.6647 2.69653 51.2687 2.74926C51.403 2.88509 51.4588 3.00537 51.5854 3.14342C51.2803 3.51713 49.7888 4.23658 49.7754 4.73422C46.3174 8.3326 45.7395 13.817 48.3716 18.0567C51.0037 22.2965 56.1763 24.2128 60.9364 22.7117C65.6964 21.2106 68.8325 16.6743 68.5555 11.6919C68.6038 11.9095 68.6809 13.1702 68.6215 13.3098C68.6502 12.9372 68.6195 12.4573 69.0626 12.4031C69.1436 12.6228 69.0809 12.8396 69.1488 13.0928C69.1913 13.4623 69.0501 14.053 69.0162 14.4665C68.8567 14.8675 68.7332 15.591 68.5666 16.0737C67.9863 17.7551 66.6845 19.6059 65.3821 20.802C63.0798 22.9256 60.0188 24.0325 56.8906 23.8723C48.538 23.4997 43.4757 14.2212 47.1815 6.90493C47.5641 6.14948 48.2738 5.04613 48.8948 4.48262Z" fill="var(--fill-0, #FA4C47)"/>
<path id="Vector_14" d="M63.4225 6.61446C63.9623 6.57271 64.2348 6.96661 64.2773 7.47654C64.3073 7.81079 64.1923 8.14176 63.961 8.38506C63.6519 8.71448 63.2729 8.69566 62.8468 8.72036C61.1719 8.4534 62.0907 6.78753 63.4225 6.61446Z" fill="var(--fill-0, #FA4C47)"/>
<path id="Vector_15" d="M56.5664 17.9076C56.8879 18.2011 58.0518 19.3585 58.0943 19.7229C57.927 19.8154 57.9923 19.791 57.7669 19.7593C57.5591 19.6162 57.5257 19.4594 57.4271 19.2222C57.0533 18.9815 56.6599 18.6208 56.307 19.0469C56.2848 19.2329 56.258 19.4184 56.2266 19.603L56.1593 19.6132L56.0404 19.7393C55.9926 20.0958 55.596 20.7693 55.2235 20.6574C55.0255 20.3748 54.9621 19.9182 55.1856 19.6293L55.3999 19.3499C55.4457 19.0543 55.3999 19.0548 55.6705 18.918C56.0449 18.7286 56.3442 18.2566 56.5664 17.9076Z" fill="var(--fill-0, #FA4C47)"/>
<path id="Vector_16" d="M54.4543 4.12471C54.5941 4.12654 55.7848 4.49829 56.0371 4.56611C55.8377 4.79059 55.6332 4.93949 55.3986 5.12497C54.4968 5.5776 53.4442 5.02789 54.4543 4.12471Z" fill="var(--fill-0, #FA4C47)"/>
<path id="Vector_17" d="M60.3279 4.58668C61.001 4.52866 62.4531 4.73303 62.5962 5.5316C61.7845 5.71368 60.816 5.24622 60.3279 4.58668Z" fill="var(--fill-0, #FA4C47)"/>
<path id="Vector_18" d="M60.7654 18.822L60.9125 18.8566C61.3033 19.3795 60.7792 19.804 60.1753 19.7884C59.9577 19.5505 59.7852 19.4539 59.9107 19.1274C60.1218 18.9515 60.4877 18.891 60.7654 18.822Z" fill="var(--fill-0, #FA4C47)"/>
<path id="Vector_19" d="M60.2313 2.22116C60.6692 2.27735 60.7986 2.25912 61.0436 2.6536C61.0665 2.87352 61.0966 2.82262 60.9966 2.96028L60.8332 2.96054C60.5051 2.96302 59.8967 3.0426 59.7915 2.6783C59.8628 2.45329 60.0327 2.3679 60.2313 2.22116Z" fill="var(--fill-0, #FA4C47)"/>
<path id="Vector_20" d="M62.9964 16.7749L63.0938 16.7518C63.4192 16.912 63.395 17.2154 63.3036 17.5127C63.1702 17.7055 63.0395 17.7232 62.8141 17.8043C62.6657 17.5647 62.5383 17.3615 62.4102 17.1097C62.4298 16.8993 62.388 16.9893 62.5553 16.8387C62.7337 16.8267 62.82 16.8105 62.9964 16.7749Z" fill="var(--fill-0, #FA4C47)"/>
<path id="Vector_21" d="M56.8208 12.3084C57.1874 12.3446 57.3344 12.323 57.5612 12.5945C57.5998 12.807 57.5749 12.8395 57.4743 13.0343C57.1848 13.0727 57.0521 13.0844 56.8234 12.8986C56.7149 12.6769 56.7692 12.5466 56.8208 12.3084Z" fill="var(--fill-0, #FA4C47)"/>
<path id="Vector_22" d="M57.2786 15.4393C57.604 15.5187 58.2163 15.7998 58.298 16.1444C57.936 16.1471 57.6053 16.1914 57.3394 15.9385C57.2224 15.7334 57.2479 15.6891 57.2786 15.4393Z" fill="var(--fill-0, #FA4C47)"/>
<path id="Vector_23" d="M5.11009 9.37836C5.58622 9.30205 6.19888 8.38621 6.57758 8.48081C6.52739 9.08358 6.71409 8.74665 6.69043 9.20921C6.27318 9.55372 4.77968 10.6211 4.74949 11.1105C1.17409 15.3171 1.55547 20.1315 1.55723 25.3269L1.5586 33.8205L1.56109 40.6608C1.5635 43.0311 1.45326 45.2969 1.96142 47.628C3.23841 53.4877 7.83758 57.2745 13.7421 57.5939C13.7492 58.9274 13.7173 60.2733 13.7214 61.6048C13.7235 62.2725 13.6685 63.4844 13.8076 64.0999C13.9185 64.6095 14.1662 65.0792 14.5241 65.4588C15.6211 66.6185 17.0981 66.41 18.4075 65.7652C20.0605 64.9512 21.6668 64.0607 23.2854 63.1813C25.8271 61.7792 28.3846 60.4059 30.9576 59.062C31.4668 58.7909 32.9568 57.8677 33.4151 57.8063C34.533 57.6567 36.1895 57.7436 37.3434 57.7429L46.7025 57.7396C51.5629 57.7403 56.4751 58.2701 60.3124 54.6343C65.0215 50.172 64.2654 44.6148 64.3203 38.7485C64.368 33.5957 64.2085 28.3365 64.3549 23.1845C64.651 22.9202 64.8588 22.7683 65.1842 22.538C65.258 23.3222 65.2215 24.5981 65.2228 25.4247L65.2286 30.6403C65.2306 35.2912 65.243 39.9774 65.2286 44.6089C65.1463 48.6067 63.985 52.4169 61.0659 55.2282C56.9423 59.1992 51.9596 58.6772 46.7051 58.6687L37.7069 58.6569C36.5141 58.653 35.3184 58.6432 34.1261 58.6556C33.2221 58.6648 32.389 59.3638 31.5995 59.7754C28.7365 61.2748 25.8888 62.803 23.057 64.3599C21.3907 65.2674 19.6451 66.3003 17.8982 67.015C16.5411 67.5704 14.8341 67.1875 13.8339 66.1174C13.4042 65.6613 13.0982 65.1027 12.9446 64.4958C12.7191 63.5948 12.7724 59.7382 12.8062 58.621C12.1224 58.4962 11.4893 58.4217 10.8177 58.2355C5.7477 56.8328 1.86699 52.7135 1.02783 47.4836C0.677953 45.3021 0.744152 43.2624 0.745132 41.0672L0.744543 33.467L0.742518 24.8563C0.740296 21.0302 0.533008 16.8853 2.17838 13.3365C2.7875 12.0227 3.9602 10.2758 5.11009 9.37836Z" fill="var(--fill-0, black)"/>
<path id="Vector_24" d="M29.308 9.59303C30.3173 9.66947 32.0478 9.61204 33.1017 9.60832L39.9204 9.58702C41.4883 9.5818 43.2052 9.54194 44.7607 9.65053C44.7401 9.78217 44.6923 10.273 44.6223 10.2894C43.6054 10.5283 41.6851 10.3499 40.7106 10.4405L21.5841 10.4501L16.3689 10.4499C13.5601 10.4506 10.7783 10.2824 8.41825 12.1005C4.73521 14.9378 4.72789 19.0527 4.72541 23.2762L4.72378 28.0622L4.72456 43.9403C4.73907 47.0841 5.24723 49.4596 7.54093 51.8071C8.81701 53.1124 11.0239 54.2871 12.8817 54.3329C13.0475 54.3368 13.2264 54.3394 13.3339 54.2028C13.909 53.4731 14.1719 51.8985 15.2356 51.6496C15.7343 51.8005 16.1406 51.3961 16.6376 51.7535C17.0006 52.4611 17.2278 51.9887 17.4692 52.3696C17.9907 53.1928 17.403 54.6216 17.7235 55.4501C17.7338 55.7023 17.7251 55.9531 17.7177 56.206C17.6524 58.4384 17.5078 60.6728 17.5137 62.9066C18.5426 62.2585 19.8127 61.5842 20.8859 60.9904L26.1804 58.0732L29.2553 56.387C29.8069 56.0786 30.7864 55.4945 31.3293 55.2554C31.6544 55.2861 31.8681 55.0979 32.1316 54.9111C32.3241 55.2756 32.4606 55.4154 32.3226 55.8238C32.1608 55.9623 30.6275 56.7705 30.3478 56.922L25.2625 59.6798L19.907 62.642C19.007 63.1509 17.4578 64.0937 16.5633 64.4916C16.39 60.9904 16.8866 57.235 16.8606 53.7122C16.8526 52.6322 16.163 51.9449 15.2514 52.8812C14.7013 53.4463 14.1523 55.4213 13.3703 55.4115C10.9351 55.3815 8.60959 54.2074 6.90664 52.5101C4.27705 49.9313 3.82169 46.8476 3.81306 43.3261L3.80575 28.6997L3.80287 23.8521C3.80228 21.8307 3.76458 19.8218 4.20699 17.8394C4.99184 14.3186 7.55805 10.87 11.2292 10.0526C13.8394 9.47145 17.0003 9.61564 19.7111 9.6093L29.308 9.59303Z" fill="var(--fill-0, black)"/>
<path id="Vector_25" d="M13.8048 6.00315C15.8435 5.94781 18.0834 5.99466 20.1338 5.99596L31.7616 5.99747L41.6503 5.9976C43.3234 5.9976 45.3034 5.94742 46.9523 6.01465L46.82 6.20085C46.4753 6.20137 46.1266 6.1868 45.7915 6.2639L46.5988 6.30924C46.4518 6.60298 46.2854 6.91259 46.1832 7.22247C43.4512 7.25246 40.7191 7.25893 37.9871 7.24174L24.9453 7.25128L18.3812 7.26271C17.9217 7.26343 15.7668 7.29401 15.4481 7.24514C15.1808 7.16661 14.9293 7.19849 14.6354 7.1817C14.747 6.81453 14.576 6.71555 14.6565 6.46088C14.7442 6.42697 14.7727 6.41795 14.8628 6.40149L14.9389 6.38803C14.6103 6.31087 13.4207 6.35517 12.9494 6.33348C13.1664 6.28618 13.562 6.28056 13.8005 6.2701C13.8499 6.14421 13.8274 6.15531 13.8048 6.00315Z" fill="var(--fill-0, black)"/>
<path id="Vector_26" d="M13.8045 6.00315C15.8432 5.94781 18.0832 5.99466 20.1336 5.99596L31.7614 5.99747L41.65 5.9976C43.3232 5.9976 45.3032 5.94742 46.9521 6.01465L46.8198 6.20085C46.4751 6.20137 46.1263 6.1868 45.7912 6.2639L13.8002 6.2701C13.8497 6.14421 13.8272 6.15531 13.8045 6.00315Z" fill="var(--fill-0, black)"/>
<path id="Vector_27" d="M57.4576 52.9414C57.6321 53.1125 57.9314 53.3523 57.9634 53.5718C57.7811 53.8828 57.4569 53.8907 57.1753 54.2657C54.2685 55.9951 50.7996 55.6044 47.5418 55.5926L36.4332 55.5514C35.3579 55.5469 33.1923 55.3796 32.323 55.8239C32.461 55.4155 32.3245 55.2757 32.132 54.9112C31.8685 55.098 31.6548 55.2862 31.3297 55.2555C33.0563 54.2598 35.0862 54.5923 37.0633 54.5963L47.2697 54.5936C50.9822 54.5976 54.1849 55.0249 57.4576 52.9414Z" fill="var(--fill-0, black)"/>
<path id="Vector_28" d="M57.4572 52.9412C61.8455 49.4773 61.1939 45.7297 61.1933 40.6455L61.1913 30.3354C61.1907 28.6451 61.1848 26.9537 61.1933 25.2638C61.1965 24.4823 61.2521 24.4281 61.9428 24.2209C62.0853 28.6451 61.9827 33.599 61.982 38.0571L61.9801 42.9485C61.9794 44.5975 62.0409 46.3915 61.6906 48.0053C61.1599 50.4533 59.4968 53.1523 57.1749 54.2656C57.4566 53.8905 57.7807 53.8827 57.963 53.5717C57.931 53.3522 57.6317 53.1124 57.4572 52.9412Z" fill="var(--fill-0, black)"/>
<path id="Vector_29" d="M5.11107 9.37871C7.05855 7.41054 10.237 6.44923 12.9495 6.33378C13.4208 6.35547 14.6105 6.31118 14.939 6.38833L14.863 6.40179C14.7729 6.41826 14.7443 6.42727 14.6567 6.46118C14.5761 6.71585 14.7471 6.81483 14.6356 7.182C14.9294 7.1988 15.1809 7.16691 15.4482 7.24544C11.1813 7.27151 8.27758 7.53507 5.09675 10.7567L4.75047 11.1109C4.78066 10.6214 6.27416 9.55407 6.69141 9.20957C6.71507 8.747 6.52837 9.08393 6.57855 8.48116C6.19985 8.38656 5.5872 9.3024 5.11107 9.37871Z" fill="var(--fill-0, black)"/>
<path id="Vector_30" d="M29.3084 9.59307C29.8647 9.54087 30.8566 9.56753 31.4393 9.56668L35.2077 9.56093C36.5212 9.55818 45.0581 9.44209 45.5314 9.66892L45.4012 10.4367C43.8983 10.4838 42.2183 10.469 40.711 10.4406C41.6855 10.3499 43.6058 10.5284 44.6227 10.2894C44.6927 10.273 44.7405 9.78221 44.7611 9.65056C43.2056 9.54198 41.4887 9.58183 39.9208 9.58706L33.1021 9.60836C32.0482 9.61208 30.3177 9.66951 29.3084 9.59307Z" fill="var(--fill-0, black)"/>
<path id="Vector_31" d="M15.2358 51.6496C16.5968 51.136 17.7291 51.8501 17.7917 53.309C17.8223 54.0231 17.7633 54.7366 17.7237 55.45C17.4032 54.6216 17.9909 53.1927 17.4694 52.3695C17.228 51.9886 17.0008 52.461 16.6379 51.7534C16.1408 51.3961 15.7345 51.8005 15.2358 51.6496Z" fill="var(--fill-0, black)"/>
</g>
</svg>
