<svg preserveAspectRatio="none" width="100%" height="100%" overflow="visible" style="display: block;" viewBox="0 0 33.75 33.7507" fill="none" xmlns="http://www.w3.org/2000/svg">
<path id="Vector" fill-rule="evenodd" clip-rule="evenodd" d="M0.395776 31.3132C1.09828 32.9382 2.2914 33.7507 3.97515 33.7507H29.7752C31.4602 33.7507 32.6533 32.9382 33.3545 31.3132C34.0558 29.6882 33.8245 28.2088 32.6608 26.8751L23.372 15.0007V3.75068H26.4995C26.7403 3.75745 26.9798 3.71373 27.2026 3.62234C27.4254 3.53095 27.6266 3.39392 27.7933 3.22006C27.9629 3.0407 28.0954 2.82961 28.1833 2.59891C28.2711 2.36821 28.3125 2.12243 28.3052 1.87568C28.3125 1.62893 28.2711 1.38315 28.1833 1.15245C28.0954 0.921749 27.9629 0.710663 27.7933 0.531306C27.6266 0.357447 27.4254 0.220411 27.2026 0.129022C26.9798 0.0376323 26.7403 -0.00608609 26.4995 0.000681181H7.25078C7.01004 -0.00608609 6.77055 0.0376323 6.54772 0.129022C6.3249 0.220411 6.12368 0.357447 5.95703 0.531306C5.78774 0.710814 5.65555 0.921968 5.56804 1.15266C5.48052 1.38336 5.4394 1.62906 5.44703 1.87568C5.44703 2.41818 5.61765 2.86631 5.9589 3.22006C6.12556 3.39392 6.32678 3.53095 6.5496 3.62234C6.77242 3.71373 7.01191 3.75745 7.25265 3.75068H10.3802V15.0007L1.08765 26.8751C-0.0748492 28.2076 -0.305474 29.6869 0.395776 31.3132ZM8.75265 23.0201H24.9977L19.7627 16.3751V3.75068H13.9877V16.3751L8.75265 23.0201Z" fill="var(--fill-0, black)"/>
</svg>
