<svg preserveAspectRatio="none" width="100%" height="100%" overflow="visible" style="display: block;" viewBox="0 0 71.6667 71.6667" fill="none" xmlns="http://www.w3.org/2000/svg">
<path id="Vector" d="M2.5 55.8333C2.5 50.7 2.5 48.1333 3.65667 46.2467C4.30334 45.19 5.19 44.3033 6.24667 43.6567C8.13 42.5 10.7 42.5 15.8333 42.5C20.9667 42.5 23.5333 42.5 25.42 43.6567C26.4767 44.3033 27.3633 45.19 28.01 46.2467C29.1667 48.13 29.1667 50.7 29.1667 55.8333C29.1667 60.9667 29.1667 63.5333 28.01 65.4233C27.3633 66.4767 26.4767 67.3633 25.42 68.01C23.5367 69.1667 20.9667 69.1667 15.8333 69.1667C10.7 69.1667 8.13334 69.1667 6.24667 68.01C5.19117 67.3644 4.3036 66.478 3.65667 65.4233C2.5 63.5333 2.5 60.9667 2.5 55.8333ZM42.5 55.8333C42.5 50.7 42.5 48.1333 43.6567 46.2467C44.3033 45.19 45.19 44.3033 46.2467 43.6567C48.13 42.5 50.7 42.5 55.8333 42.5C60.9667 42.5 63.5333 42.5 65.4233 43.6567C66.4767 44.3033 67.3633 45.19 68.01 46.2467C69.1667 48.13 69.1667 50.7 69.1667 55.8333C69.1667 60.9667 69.1667 63.5333 68.01 65.4233C67.363 66.4768 66.4768 67.363 65.4233 68.01C63.5333 69.1667 60.9667 69.1667 55.8333 69.1667C50.7 69.1667 48.1333 69.1667 46.2467 68.01C45.1912 67.3644 44.3036 66.478 43.6567 65.4233C42.5 63.5333 42.5 60.9667 42.5 55.8333ZM2.5 15.8333C2.5 10.7 2.5 8.13334 3.65667 6.24667C4.30334 5.19 5.19 4.30334 6.24667 3.65667C8.13 2.5 10.7 2.5 15.8333 2.5C20.9667 2.5 23.5333 2.5 25.42 3.65667C26.4767 4.30334 27.3633 5.19 28.01 6.24667C29.1667 8.13 29.1667 10.7 29.1667 15.8333C29.1667 20.9667 29.1667 23.5333 28.01 25.42C27.3633 26.4767 26.4767 27.3633 25.42 28.01C23.5367 29.1667 20.9667 29.1667 15.8333 29.1667C10.7 29.1667 8.13334 29.1667 6.24667 28.01C5.19079 27.3635 4.30319 26.4759 3.65667 25.42C2.5 23.5367 2.5 20.9667 2.5 15.8333ZM42.5 15.8333C42.5 10.7 42.5 8.13334 43.6567 6.24667C44.3033 5.19 45.19 4.30334 46.2467 3.65667C48.13 2.5 50.7 2.5 55.8333 2.5C60.9667 2.5 63.5333 2.5 65.4233 3.65667C66.4767 4.30334 67.3633 5.19 68.01 6.24667C69.1667 8.13 69.1667 10.7 69.1667 15.8333C69.1667 20.9667 69.1667 23.5333 68.01 25.42C67.3633 26.4767 66.4767 27.3633 65.4233 28.01C63.5333 29.1667 60.9667 29.1667 55.8333 29.1667C50.7 29.1667 48.1333 29.1667 46.2467 28.01C45.1908 27.3635 44.3032 26.4759 43.6567 25.42C42.5 23.5367 42.5 20.9667 42.5 15.8333Z" stroke="var(--stroke-0, black)" stroke-width="5"/>
</svg>
